<svg width="7573" height="406" viewBox="0 0 7573 406" fill="none" xmlns="http://www.w3.org/2000/svg">
<path d="M0 0H7572.1V406H0V0Z" fill="black"/>
<path d="M100.657 211.682L86.8327 229.538H52.0807C40.0487 229.538 30.0647 226.21 22.1287 219.554C14.2567 212.834 10.3207 204.418 10.3207 194.306C10.3207 184.194 14.2247 176.002 22.0327 169.73C29.8407 163.458 39.8567 160.322 52.0807 160.322H100.657L86.8327 178.274H52.0807C46.1927 178.274 41.3287 179.874 37.4887 183.074C33.6487 186.21 31.7287 190.242 31.7287 195.17C31.7287 200.034 33.6487 204.002 37.4887 207.074C41.3287 210.146 46.1927 211.682 52.0807 211.682H100.657ZM195.385 160.322L181.561 178.274H132.601C129.977 178.274 128.665 179.202 128.665 181.058C128.665 182.914 129.977 183.842 132.601 183.842H167.833C176.217 183.842 183.225 185.89 188.857 189.986C194.681 194.338 197.593 199.97 197.593 206.882C197.593 213.73 194.649 219.266 188.761 223.49C183.257 227.522 176.281 229.538 167.833 229.538H104.473L118.297 211.682H167.833C170.073 211.682 172.089 211.298 173.881 210.53C176.185 209.57 177.337 208.258 177.337 206.594C177.337 204.866 176.185 203.554 173.881 202.658C172.153 202.018 170.137 201.698 167.833 201.698H132.601C124.793 201.698 118.265 199.906 113.017 196.322C107.385 192.482 104.569 187.394 104.569 181.058C104.569 174.658 107.385 169.538 113.017 165.698C118.265 162.114 124.793 160.322 132.601 160.322H195.385ZM276.487 211.682L262.663 229.538H201.319V160.322H276.487L262.663 178.274H222.823V185.57H273.127L259.303 203.426H222.823V211.682H276.487ZM368.148 194.306C368.148 204.418 364.18 212.834 356.244 219.554C348.372 226.21 338.42 229.538 326.388 229.538H280.02V186.338H301.524V211.682H326.388C332.34 211.682 337.236 210.178 341.076 207.17C344.916 204.098 346.836 200.098 346.836 195.17C346.836 190.242 344.884 186.21 340.98 183.074C337.14 179.874 332.276 178.274 326.388 178.274H280.02L293.652 160.322H326.388C338.612 160.322 348.628 163.458 356.436 169.73C364.244 176.002 368.148 184.194 368.148 194.306ZM438.174 220.802C438.174 223.426 437.15 225.57 435.102 227.234C433.054 228.898 430.43 229.73 427.23 229.73C424.03 229.73 421.406 228.898 419.358 227.234C417.31 225.57 416.286 223.426 416.286 220.802C416.286 218.114 417.31 215.938 419.358 214.274C421.406 212.61 424.03 211.778 427.23 211.778C430.43 211.778 433.054 212.61 435.102 214.274C437.15 215.938 438.174 218.114 438.174 220.802ZM574.594 160.322L560.77 178.274H526.018C520.13 178.274 515.234 179.874 511.33 183.074C507.49 186.21 505.57 190.242 505.57 195.17C505.57 200.098 507.49 204.098 511.33 207.17C515.17 210.178 520.066 211.682 526.018 211.682H550.978V205.25H524.098L509.986 188.162H572.482V229.538H526.018C513.986 229.538 504.002 226.21 496.066 219.554C488.194 212.834 484.258 204.418 484.258 194.306C484.258 184.194 488.162 176.002 495.97 169.73C503.778 163.458 513.794 160.322 526.018 160.322H574.594ZM681.421 229.538H650.221L629.293 212.162H599.725V229.538H578.221V194.21H637.933C641.581 194.21 644.589 193.666 646.957 192.578C649.965 191.17 651.469 189.09 651.469 186.338C651.469 180.962 646.957 178.274 637.933 178.274H578.221L592.237 160.322H635.917C646.733 160.322 655.501 162.37 662.221 166.466C669.773 171.138 673.549 177.794 673.549 186.434C673.549 191.298 672.013 195.714 668.941 199.682C665.933 203.586 661.741 206.594 656.365 208.706L681.421 229.538ZM717.22 229.538L730.18 211.586H759.076L741.124 186.722L709.924 229.538H683.332L727.684 168.002C729.092 165.954 731.044 164.162 733.54 162.626C736.292 160.962 738.948 160.13 741.508 160.13C744.132 160.13 746.788 160.962 749.476 162.626C751.844 164.098 753.764 165.89 755.236 168.002L798.532 229.538H717.22ZM875.766 160.322L829.11 222.818C825.27 228.002 821.366 230.594 817.398 230.594C813.43 230.594 809.526 227.97 805.686 222.722L760.182 160.322H786.87L817.782 203.138L848.886 160.322H875.766ZM903.176 229.538H881.768V160.322H903.176V229.538ZM992.057 160.322L978.137 178.274H957.401V229.538H935.897V178.274H907.385L921.209 160.322H992.057ZM997.532 229.538L1010.49 211.586H1039.39L1021.44 186.722L990.236 229.538H963.644L1008 168.002C1009.4 165.954 1011.36 164.162 1013.85 162.626C1016.6 160.962 1019.26 160.13 1021.82 160.13C1024.44 160.13 1027.1 160.962 1029.79 162.626C1032.16 164.098 1034.08 165.89 1035.55 168.002L1078.84 229.538H997.532ZM1171.42 160.322L1157.59 178.274H1108.63C1106.01 178.274 1104.7 179.202 1104.7 181.058C1104.7 182.914 1106.01 183.842 1108.63 183.842H1143.86C1152.25 183.842 1159.26 185.89 1164.89 189.986C1170.71 194.338 1173.62 199.97 1173.62 206.882C1173.62 213.73 1170.68 219.266 1164.79 223.49C1159.29 227.522 1152.31 229.538 1143.86 229.538H1080.5L1094.33 211.682H1143.86C1146.1 211.682 1148.12 211.298 1149.91 210.53C1152.22 209.57 1153.37 208.258 1153.37 206.594C1153.37 204.866 1152.22 203.554 1149.91 202.658C1148.18 202.018 1146.17 201.698 1143.86 201.698H1108.63C1100.82 201.698 1094.3 199.906 1089.05 196.322C1083.42 192.482 1080.6 187.394 1080.6 181.058C1080.6 174.658 1083.42 169.538 1089.05 165.698C1094.3 162.114 1100.82 160.322 1108.63 160.322H1171.42ZM1242.83 220.802C1242.83 223.426 1241.81 225.57 1239.76 227.234C1237.71 228.898 1235.09 229.73 1231.89 229.73C1228.69 229.73 1226.06 228.898 1224.01 227.234C1221.97 225.57 1220.94 223.426 1220.94 220.802C1220.94 218.114 1221.97 215.938 1224.01 214.274C1226.06 212.61 1228.69 211.778 1231.89 211.778C1235.09 211.778 1237.71 212.61 1239.76 214.274C1241.81 215.938 1242.83 218.114 1242.83 220.802ZM1377.91 211.682L1364.08 229.538H1329.33C1317.3 229.538 1307.31 226.21 1299.38 219.554C1291.51 212.834 1287.57 204.418 1287.57 194.306C1287.57 184.194 1291.47 176.002 1299.28 169.73C1307.09 163.458 1317.11 160.322 1329.33 160.322H1377.91L1364.08 178.274H1329.33C1323.44 178.274 1318.58 179.874 1314.74 183.074C1310.9 186.21 1308.98 190.242 1308.98 195.17C1308.98 200.034 1310.9 204.002 1314.74 207.074C1318.58 210.146 1323.44 211.682 1329.33 211.682H1377.91ZM1472.63 160.322L1458.81 178.274H1409.85C1407.23 178.274 1405.91 179.202 1405.91 181.058C1405.91 182.914 1407.23 183.842 1409.85 183.842H1445.08C1453.47 183.842 1460.47 185.89 1466.11 189.986C1471.93 194.338 1474.84 199.97 1474.84 206.882C1474.84 213.73 1471.9 219.266 1466.01 223.49C1460.51 227.522 1453.53 229.538 1445.08 229.538H1381.72L1395.55 211.682H1445.08C1447.32 211.682 1449.34 211.298 1451.13 210.53C1453.43 209.57 1454.59 208.258 1454.59 206.594C1454.59 204.866 1453.43 203.554 1451.13 202.658C1449.4 202.018 1447.39 201.698 1445.08 201.698H1409.85C1402.04 201.698 1395.51 199.906 1390.27 196.322C1384.63 192.482 1381.82 187.394 1381.82 181.058C1381.82 174.658 1384.63 169.538 1390.27 165.698C1395.51 162.114 1402.04 160.322 1409.85 160.322H1472.63ZM1553.74 211.682L1539.91 229.538H1478.57V160.322H1553.74L1539.91 178.274H1500.07V185.57H1550.38L1536.55 203.426H1500.07V211.682H1553.74ZM1645.4 194.306C1645.4 204.418 1641.43 212.834 1633.49 219.554C1625.62 226.21 1615.67 229.538 1603.64 229.538H1557.27V186.338H1578.77V211.682H1603.64C1609.59 211.682 1614.49 210.178 1618.33 207.17C1622.17 204.098 1624.09 200.098 1624.09 195.17C1624.09 190.242 1622.13 186.21 1618.23 183.074C1614.39 179.874 1609.53 178.274 1603.64 178.274H1557.27L1570.9 160.322H1603.64C1615.86 160.322 1625.88 163.458 1633.69 169.73C1641.49 176.002 1645.4 184.194 1645.4 194.306ZM1715.42 220.802C1715.42 223.426 1714.4 225.57 1712.35 227.234C1710.3 228.898 1707.68 229.73 1704.48 229.73C1701.28 229.73 1698.66 228.898 1696.61 227.234C1694.56 225.57 1693.54 223.426 1693.54 220.802C1693.54 218.114 1694.56 215.938 1696.61 214.274C1698.66 212.61 1701.28 211.778 1704.48 211.778C1707.68 211.778 1710.3 212.61 1712.35 214.274C1714.4 215.938 1715.42 218.114 1715.42 220.802ZM1851.84 160.322L1838.02 178.274H1803.27C1797.38 178.274 1792.48 179.874 1788.58 183.074C1784.74 186.21 1782.82 190.242 1782.82 195.17C1782.82 200.098 1784.74 204.098 1788.58 207.17C1792.42 210.178 1797.32 211.682 1803.27 211.682H1828.23V205.25H1801.35L1787.24 188.162H1849.73V229.538H1803.27C1791.24 229.538 1781.25 226.21 1773.32 219.554C1765.44 212.834 1761.51 204.418 1761.51 194.306C1761.51 184.194 1765.41 176.002 1773.22 169.73C1781.03 163.458 1791.04 160.322 1803.27 160.322H1851.84ZM1958.67 229.538H1927.47L1906.54 212.162H1876.97V229.538H1855.47V194.21H1915.18C1918.83 194.21 1921.84 193.666 1924.21 192.578C1927.21 191.17 1928.72 189.09 1928.72 186.338C1928.72 180.962 1924.21 178.274 1915.18 178.274H1855.47L1869.49 160.322H1913.17C1923.98 160.322 1932.75 162.37 1939.47 166.466C1947.02 171.138 1950.8 177.794 1950.8 186.434C1950.8 191.298 1949.26 195.714 1946.19 199.682C1943.18 203.586 1938.99 206.594 1933.61 208.706L1958.67 229.538ZM1994.47 229.538L2007.43 211.586H2036.33L2018.37 186.722L1987.17 229.538H1960.58L2004.93 168.002C2006.34 165.954 2008.29 164.162 2010.79 162.626C2013.54 160.962 2016.2 160.13 2018.76 160.13C2021.38 160.13 2024.04 160.962 2026.73 162.626C2029.09 164.098 2031.01 165.89 2032.49 168.002L2075.78 229.538H1994.47ZM2153.02 160.322L2106.36 222.818C2102.52 228.002 2098.62 230.594 2094.65 230.594C2090.68 230.594 2086.78 227.97 2082.94 222.722L2037.43 160.322H2064.12L2095.03 203.138L2126.14 160.322H2153.02ZM2180.43 229.538H2159.02V160.322H2180.43V229.538ZM2269.31 160.322L2255.39 178.274H2234.65V229.538H2213.15V178.274H2184.64L2198.46 160.322H2269.31ZM2274.78 229.538L2287.74 211.586H2316.64L2298.69 186.722L2267.49 229.538H2240.89L2285.25 168.002C2286.65 165.954 2288.61 164.162 2291.1 162.626C2293.85 160.962 2296.51 160.13 2299.07 160.13C2301.69 160.13 2304.35 160.962 2307.04 162.626C2309.41 164.098 2311.33 165.89 2312.8 168.002L2356.09 229.538H2274.78ZM2448.67 160.322L2434.84 178.274H2385.88C2383.26 178.274 2381.95 179.202 2381.95 181.058C2381.95 182.914 2383.26 183.842 2385.88 183.842H2421.11C2429.5 183.842 2436.51 185.89 2442.14 189.986C2447.96 194.338 2450.87 199.97 2450.87 206.882C2450.87 213.73 2447.93 219.266 2442.04 223.49C2436.54 227.522 2429.56 229.538 2421.11 229.538H2357.75L2371.58 211.682H2421.11C2423.35 211.682 2425.37 211.298 2427.16 210.53C2429.47 209.57 2430.62 208.258 2430.62 206.594C2430.62 204.866 2429.47 203.554 2427.16 202.658C2425.43 202.018 2423.42 201.698 2421.11 201.698H2385.88C2378.07 201.698 2371.55 199.906 2366.3 196.322C2360.67 192.482 2357.85 187.394 2357.85 181.058C2357.85 174.658 2360.67 169.538 2366.3 165.698C2371.55 162.114 2378.07 160.322 2385.88 160.322H2448.67ZM2520.08 220.802C2520.08 223.426 2519.06 225.57 2517.01 227.234C2514.96 228.898 2512.34 229.73 2509.14 229.73C2505.94 229.73 2503.31 228.898 2501.26 227.234C2499.22 225.57 2498.19 223.426 2498.19 220.802C2498.19 218.114 2499.22 215.938 2501.26 214.274C2503.31 212.61 2505.94 211.778 2509.14 211.778C2512.34 211.778 2514.96 212.61 2517.01 214.274C2519.06 215.938 2520.08 218.114 2520.08 220.802ZM2655.16 211.682L2641.33 229.538H2606.58C2594.55 229.538 2584.56 226.21 2576.63 219.554C2568.76 212.834 2564.82 204.418 2564.82 194.306C2564.82 184.194 2568.72 176.002 2576.53 169.73C2584.34 163.458 2594.36 160.322 2606.58 160.322H2655.16L2641.33 178.274H2606.58C2600.69 178.274 2595.83 179.874 2591.99 183.074C2588.15 186.21 2586.23 190.242 2586.23 195.17C2586.23 200.034 2588.15 204.002 2591.99 207.074C2595.83 210.146 2600.69 211.682 2606.58 211.682H2655.16ZM2749.88 160.322L2736.06 178.274H2687.1C2684.48 178.274 2683.16 179.202 2683.16 181.058C2683.16 182.914 2684.48 183.842 2687.1 183.842H2722.33C2730.72 183.842 2737.72 185.89 2743.36 189.986C2749.18 194.338 2752.09 199.97 2752.09 206.882C2752.09 213.73 2749.15 219.266 2743.26 223.49C2737.76 227.522 2730.78 229.538 2722.33 229.538H2658.97L2672.8 211.682H2722.33C2724.57 211.682 2726.59 211.298 2728.38 210.53C2730.68 209.57 2731.84 208.258 2731.84 206.594C2731.84 204.866 2730.68 203.554 2728.38 202.658C2726.65 202.018 2724.64 201.698 2722.33 201.698H2687.1C2679.29 201.698 2672.76 199.906 2667.52 196.322C2661.88 192.482 2659.07 187.394 2659.07 181.058C2659.07 174.658 2661.88 169.538 2667.52 165.698C2672.76 162.114 2679.29 160.322 2687.1 160.322H2749.88ZM2830.99 211.682L2817.16 229.538H2755.82V160.322H2830.99L2817.16 178.274H2777.32V185.57H2827.63L2813.8 203.426H2777.32V211.682H2830.99ZM2922.65 194.306C2922.65 204.418 2918.68 212.834 2910.74 219.554C2902.87 226.21 2892.92 229.538 2880.89 229.538H2834.52V186.338H2856.02V211.682H2880.89C2886.84 211.682 2891.74 210.178 2895.58 207.17C2899.42 204.098 2901.34 200.098 2901.34 195.17C2901.34 190.242 2899.38 186.21 2895.48 183.074C2891.64 179.874 2886.78 178.274 2880.89 178.274H2834.52L2848.15 160.322H2880.89C2893.11 160.322 2903.13 163.458 2910.94 169.73C2918.74 176.002 2922.65 184.194 2922.65 194.306ZM2992.67 220.802C2992.67 223.426 2991.65 225.57 2989.6 227.234C2987.55 228.898 2984.93 229.73 2981.73 229.73C2978.53 229.73 2975.91 228.898 2973.86 227.234C2971.81 225.57 2970.79 223.426 2970.79 220.802C2970.79 218.114 2971.81 215.938 2973.86 214.274C2975.91 212.61 2978.53 211.778 2981.73 211.778C2984.93 211.778 2987.55 212.61 2989.6 214.274C2991.65 215.938 2992.67 218.114 2992.67 220.802ZM3129.09 160.322L3115.27 178.274H3080.52C3074.63 178.274 3069.73 179.874 3065.83 183.074C3061.99 186.21 3060.07 190.242 3060.07 195.17C3060.07 200.098 3061.99 204.098 3065.83 207.17C3069.67 210.178 3074.57 211.682 3080.52 211.682H3105.48V205.25H3078.6L3064.49 188.162H3126.98V229.538H3080.52C3068.49 229.538 3058.5 226.21 3050.57 219.554C3042.69 212.834 3038.76 204.418 3038.76 194.306C3038.76 184.194 3042.66 176.002 3050.47 169.73C3058.28 163.458 3068.29 160.322 3080.52 160.322H3129.09ZM3235.92 229.538H3204.72L3183.79 212.162H3154.22V229.538H3132.72V194.21H3192.43C3196.08 194.21 3199.09 193.666 3201.46 192.578C3204.46 191.17 3205.97 189.09 3205.97 186.338C3205.97 180.962 3201.46 178.274 3192.43 178.274H3132.72L3146.74 160.322H3190.42C3201.23 160.322 3210 162.37 3216.72 166.466C3224.27 171.138 3228.05 177.794 3228.05 186.434C3228.05 191.298 3226.51 195.714 3223.44 199.682C3220.43 203.586 3216.24 206.594 3210.86 208.706L3235.92 229.538ZM3271.72 229.538L3284.68 211.586H3313.58L3295.62 186.722L3264.42 229.538H3237.83L3282.18 168.002C3283.59 165.954 3285.54 164.162 3288.04 162.626C3290.79 160.962 3293.45 160.13 3296.01 160.13C3298.63 160.13 3301.29 160.962 3303.98 162.626C3306.34 164.098 3308.26 165.89 3309.74 168.002L3353.03 229.538H3271.72ZM3430.27 160.322L3383.61 222.818C3379.77 228.002 3375.87 230.594 3371.9 230.594C3367.93 230.594 3364.03 227.97 3360.19 222.722L3314.68 160.322H3341.37L3372.28 203.138L3403.39 160.322H3430.27ZM3457.68 229.538H3436.27V160.322H3457.68V229.538ZM3546.56 160.322L3532.64 178.274H3511.9V229.538H3490.4V178.274H3461.89L3475.71 160.322H3546.56ZM3552.03 229.538L3564.99 211.586H3593.89L3575.94 186.722L3544.74 229.538H3518.14L3562.5 168.002C3563.9 165.954 3565.86 164.162 3568.35 162.626C3571.1 160.962 3573.76 160.13 3576.32 160.13C3578.94 160.13 3581.6 160.962 3584.29 162.626C3586.66 164.098 3588.58 165.89 3590.05 168.002L3633.34 229.538H3552.03ZM3725.92 160.322L3712.09 178.274H3663.13C3660.51 178.274 3659.2 179.202 3659.2 181.058C3659.2 182.914 3660.51 183.842 3663.13 183.842H3698.36C3706.75 183.842 3713.76 185.89 3719.39 189.986C3725.21 194.338 3728.12 199.97 3728.12 206.882C3728.12 213.73 3725.18 219.266 3719.29 223.49C3713.79 227.522 3706.81 229.538 3698.36 229.538H3635L3648.83 211.682H3698.36C3700.6 211.682 3702.62 211.298 3704.41 210.53C3706.72 209.57 3707.87 208.258 3707.87 206.594C3707.87 204.866 3706.72 203.554 3704.41 202.658C3702.68 202.018 3700.67 201.698 3698.36 201.698H3663.13C3655.32 201.698 3648.8 199.906 3643.55 196.322C3637.92 192.482 3635.1 187.394 3635.1 181.058C3635.1 174.658 3637.92 169.538 3643.55 165.698C3648.8 162.114 3655.32 160.322 3663.13 160.322H3725.92ZM3797.33 220.802C3797.33 223.426 3796.31 225.57 3794.26 227.234C3792.21 228.898 3789.59 229.73 3786.39 229.73C3783.19 229.73 3780.56 228.898 3778.51 227.234C3776.47 225.57 3775.44 223.426 3775.44 220.802C3775.44 218.114 3776.47 215.938 3778.51 214.274C3780.56 212.61 3783.19 211.778 3786.39 211.778C3789.59 211.778 3792.21 212.61 3794.26 214.274C3796.31 215.938 3797.33 218.114 3797.33 220.802ZM3932.41 211.682L3918.58 229.538H3883.83C3871.8 229.538 3861.81 226.21 3853.88 219.554C3846.01 212.834 3842.07 204.418 3842.07 194.306C3842.07 184.194 3845.97 176.002 3853.78 169.73C3861.59 163.458 3871.61 160.322 3883.83 160.322H3932.41L3918.58 178.274H3883.83C3877.94 178.274 3873.08 179.874 3869.24 183.074C3865.4 186.21 3863.48 190.242 3863.48 195.17C3863.48 200.034 3865.4 204.002 3869.24 207.074C3873.08 210.146 3877.94 211.682 3883.83 211.682H3932.41ZM4027.13 160.322L4013.31 178.274H3964.35C3961.73 178.274 3960.41 179.202 3960.41 181.058C3960.41 182.914 3961.73 183.842 3964.35 183.842H3999.58C4007.97 183.842 4014.97 185.89 4020.61 189.986C4026.43 194.338 4029.34 199.97 4029.34 206.882C4029.34 213.73 4026.4 219.266 4020.51 223.49C4015.01 227.522 4008.03 229.538 3999.58 229.538H3936.22L3950.05 211.682H3999.58C4001.82 211.682 4003.84 211.298 4005.63 210.53C4007.93 209.57 4009.09 208.258 4009.09 206.594C4009.09 204.866 4007.93 203.554 4005.63 202.658C4003.9 202.018 4001.89 201.698 3999.58 201.698H3964.35C3956.54 201.698 3950.01 199.906 3944.77 196.322C3939.13 192.482 3936.32 187.394 3936.32 181.058C3936.32 174.658 3939.13 169.538 3944.77 165.698C3950.01 162.114 3956.54 160.322 3964.35 160.322H4027.13ZM4108.24 211.682L4094.41 229.538H4033.07V160.322H4108.24L4094.41 178.274H4054.57V185.57H4104.88L4091.05 203.426H4054.57V211.682H4108.24ZM4199.9 194.306C4199.9 204.418 4195.93 212.834 4187.99 219.554C4180.12 226.21 4170.17 229.538 4158.14 229.538H4111.77V186.338H4133.27V211.682H4158.14C4164.09 211.682 4168.99 210.178 4172.83 207.17C4176.67 204.098 4178.59 200.098 4178.59 195.17C4178.59 190.242 4176.63 186.21 4172.73 183.074C4168.89 179.874 4164.03 178.274 4158.14 178.274H4111.77L4125.4 160.322H4158.14C4170.36 160.322 4180.38 163.458 4188.19 169.73C4195.99 176.002 4199.9 184.194 4199.9 194.306ZM4269.92 220.802C4269.92 223.426 4268.9 225.57 4266.85 227.234C4264.8 228.898 4262.18 229.73 4258.98 229.73C4255.78 229.73 4253.16 228.898 4251.11 227.234C4249.06 225.57 4248.04 223.426 4248.04 220.802C4248.04 218.114 4249.06 215.938 4251.11 214.274C4253.16 212.61 4255.78 211.778 4258.98 211.778C4262.18 211.778 4264.8 212.61 4266.85 214.274C4268.9 215.938 4269.92 218.114 4269.92 220.802ZM4406.34 160.322L4392.52 178.274H4357.77C4351.88 178.274 4346.98 179.874 4343.08 183.074C4339.24 186.21 4337.32 190.242 4337.32 195.17C4337.32 200.098 4339.24 204.098 4343.08 207.17C4346.92 210.178 4351.82 211.682 4357.77 211.682H4382.73V205.25H4355.85L4341.74 188.162H4404.23V229.538H4357.77C4345.74 229.538 4335.75 226.21 4327.82 219.554C4319.94 212.834 4316.01 204.418 4316.01 194.306C4316.01 184.194 4319.91 176.002 4327.72 169.73C4335.53 163.458 4345.54 160.322 4357.77 160.322H4406.34ZM4513.17 229.538H4481.97L4461.04 212.162H4431.47V229.538H4409.97V194.21H4469.68C4473.33 194.21 4476.34 193.666 4478.71 192.578C4481.71 191.17 4483.22 189.09 4483.22 186.338C4483.22 180.962 4478.71 178.274 4469.68 178.274H4409.97L4423.99 160.322H4467.67C4478.48 160.322 4487.25 162.37 4493.97 166.466C4501.52 171.138 4505.3 177.794 4505.3 186.434C4505.3 191.298 4503.76 195.714 4500.69 199.682C4497.68 203.586 4493.49 206.594 4488.11 208.706L4513.17 229.538ZM4548.97 229.538L4561.93 211.586H4590.83L4572.87 186.722L4541.67 229.538H4515.08L4559.43 168.002C4560.84 165.954 4562.79 164.162 4565.29 162.626C4568.04 160.962 4570.7 160.13 4573.26 160.13C4575.88 160.13 4578.54 160.962 4581.23 162.626C4583.59 164.098 4585.51 165.89 4586.99 168.002L4630.28 229.538H4548.97ZM4707.52 160.322L4660.86 222.818C4657.02 228.002 4653.12 230.594 4649.15 230.594C4645.18 230.594 4641.28 227.97 4637.44 222.722L4591.93 160.322H4618.62L4649.53 203.138L4680.64 160.322H4707.52ZM4734.93 229.538H4713.52V160.322H4734.93V229.538ZM4823.81 160.322L4809.89 178.274H4789.15V229.538H4767.65V178.274H4739.14L4752.96 160.322H4823.81ZM4829.28 229.538L4842.24 211.586H4871.14L4853.19 186.722L4821.99 229.538H4795.39L4839.75 168.002C4841.15 165.954 4843.11 164.162 4845.6 162.626C4848.35 160.962 4851.01 160.13 4853.57 160.13C4856.19 160.13 4858.85 160.962 4861.54 162.626C4863.91 164.098 4865.83 165.89 4867.3 168.002L4910.59 229.538H4829.28ZM5003.17 160.322L4989.34 178.274H4940.38C4937.76 178.274 4936.45 179.202 4936.45 181.058C4936.45 182.914 4937.76 183.842 4940.38 183.842H4975.61C4984 183.842 4991.01 185.89 4996.64 189.986C5002.46 194.338 5005.37 199.97 5005.37 206.882C5005.37 213.73 5002.43 219.266 4996.54 223.49C4991.04 227.522 4984.06 229.538 4975.61 229.538H4912.25L4926.08 211.682H4975.61C4977.85 211.682 4979.87 211.298 4981.66 210.53C4983.97 209.57 4985.12 208.258 4985.12 206.594C4985.12 204.866 4983.97 203.554 4981.66 202.658C4979.93 202.018 4977.92 201.698 4975.61 201.698H4940.38C4932.57 201.698 4926.05 199.906 4920.8 196.322C4915.17 192.482 4912.35 187.394 4912.35 181.058C4912.35 174.658 4915.17 169.538 4920.8 165.698C4926.05 162.114 4932.57 160.322 4940.38 160.322H5003.17ZM5074.58 220.802C5074.58 223.426 5073.56 225.57 5071.51 227.234C5069.46 228.898 5066.84 229.73 5063.64 229.73C5060.44 229.73 5057.81 228.898 5055.76 227.234C5053.72 225.57 5052.69 223.426 5052.69 220.802C5052.69 218.114 5053.72 215.938 5055.76 214.274C5057.81 212.61 5060.44 211.778 5063.64 211.778C5066.84 211.778 5069.46 212.61 5071.51 214.274C5073.56 215.938 5074.58 218.114 5074.58 220.802ZM5209.66 211.682L5195.83 229.538H5161.08C5149.05 229.538 5139.06 226.21 5131.13 219.554C5123.26 212.834 5119.32 204.418 5119.32 194.306C5119.32 184.194 5123.22 176.002 5131.03 169.73C5138.84 163.458 5148.86 160.322 5161.08 160.322H5209.66L5195.83 178.274H5161.08C5155.19 178.274 5150.33 179.874 5146.49 183.074C5142.65 186.21 5140.73 190.242 5140.73 195.17C5140.73 200.034 5142.65 204.002 5146.49 207.074C5150.33 210.146 5155.19 211.682 5161.08 211.682H5209.66ZM5304.38 160.322L5290.56 178.274H5241.6C5238.98 178.274 5237.66 179.202 5237.66 181.058C5237.66 182.914 5238.98 183.842 5241.6 183.842H5276.83C5285.22 183.842 5292.22 185.89 5297.86 189.986C5303.68 194.338 5306.59 199.97 5306.59 206.882C5306.59 213.73 5303.65 219.266 5297.76 223.49C5292.26 227.522 5285.28 229.538 5276.83 229.538H5213.47L5227.3 211.682H5276.83C5279.07 211.682 5281.09 211.298 5282.88 210.53C5285.18 209.57 5286.34 208.258 5286.34 206.594C5286.34 204.866 5285.18 203.554 5282.88 202.658C5281.15 202.018 5279.14 201.698 5276.83 201.698H5241.6C5233.79 201.698 5227.26 199.906 5222.02 196.322C5216.38 192.482 5213.57 187.394 5213.57 181.058C5213.57 174.658 5216.38 169.538 5222.02 165.698C5227.26 162.114 5233.79 160.322 5241.6 160.322H5304.38ZM5385.49 211.682L5371.66 229.538H5310.32V160.322H5385.49L5371.66 178.274H5331.82V185.57H5382.13L5368.3 203.426H5331.82V211.682H5385.49ZM5477.15 194.306C5477.15 204.418 5473.18 212.834 5465.24 219.554C5457.37 226.21 5447.42 229.538 5435.39 229.538H5389.02V186.338H5410.52V211.682H5435.39C5441.34 211.682 5446.24 210.178 5450.08 207.17C5453.92 204.098 5455.84 200.098 5455.84 195.17C5455.84 190.242 5453.88 186.21 5449.98 183.074C5446.14 179.874 5441.28 178.274 5435.39 178.274H5389.02L5402.65 160.322H5435.39C5447.61 160.322 5457.63 163.458 5465.44 169.73C5473.24 176.002 5477.15 184.194 5477.15 194.306ZM5547.17 220.802C5547.17 223.426 5546.15 225.57 5544.1 227.234C5542.05 228.898 5539.43 229.73 5536.23 229.73C5533.03 229.73 5530.41 228.898 5528.36 227.234C5526.31 225.57 5525.29 223.426 5525.29 220.802C5525.29 218.114 5526.31 215.938 5528.36 214.274C5530.41 212.61 5533.03 211.778 5536.23 211.778C5539.43 211.778 5542.05 212.61 5544.1 214.274C5546.15 215.938 5547.17 218.114 5547.17 220.802ZM5683.59 160.322L5669.77 178.274H5635.02C5629.13 178.274 5624.23 179.874 5620.33 183.074C5616.49 186.21 5614.57 190.242 5614.57 195.17C5614.57 200.098 5616.49 204.098 5620.33 207.17C5624.17 210.178 5629.07 211.682 5635.02 211.682H5659.98V205.25H5633.1L5618.99 188.162H5681.48V229.538H5635.02C5622.99 229.538 5613 226.21 5605.07 219.554C5597.19 212.834 5593.26 204.418 5593.26 194.306C5593.26 184.194 5597.16 176.002 5604.97 169.73C5612.78 163.458 5622.79 160.322 5635.02 160.322H5683.59ZM5790.42 229.538H5759.22L5738.29 212.162H5708.72V229.538H5687.22V194.21H5746.93C5750.58 194.21 5753.59 193.666 5755.96 192.578C5758.96 191.17 5760.47 189.09 5760.47 186.338C5760.47 180.962 5755.96 178.274 5746.93 178.274H5687.22L5701.24 160.322H5744.92C5755.73 160.322 5764.5 162.37 5771.22 166.466C5778.77 171.138 5782.55 177.794 5782.55 186.434C5782.55 191.298 5781.01 195.714 5777.94 199.682C5774.93 203.586 5770.74 206.594 5765.36 208.706L5790.42 229.538ZM5826.22 229.538L5839.18 211.586H5868.08L5850.12 186.722L5818.92 229.538H5792.33L5836.68 168.002C5838.09 165.954 5840.04 164.162 5842.54 162.626C5845.29 160.962 5847.95 160.13 5850.51 160.13C5853.13 160.13 5855.79 160.962 5858.48 162.626C5860.84 164.098 5862.76 165.89 5864.24 168.002L5907.53 229.538H5826.22ZM5984.77 160.322L5938.11 222.818C5934.27 228.002 5930.37 230.594 5926.4 230.594C5922.43 230.594 5918.53 227.97 5914.69 222.722L5869.18 160.322H5895.87L5926.78 203.138L5957.89 160.322H5984.77ZM6012.18 229.538H5990.77V160.322H6012.18V229.538ZM6101.06 160.322L6087.14 178.274H6066.4V229.538H6044.9V178.274H6016.39L6030.21 160.322H6101.06ZM6106.53 229.538L6119.49 211.586H6148.39L6130.44 186.722L6099.24 229.538H6072.64L6117 168.002C6118.4 165.954 6120.36 164.162 6122.85 162.626C6125.6 160.962 6128.26 160.13 6130.82 160.13C6133.44 160.13 6136.1 160.962 6138.79 162.626C6141.16 164.098 6143.08 165.89 6144.55 168.002L6187.84 229.538H6106.53ZM6280.42 160.322L6266.59 178.274H6217.63C6215.01 178.274 6213.7 179.202 6213.7 181.058C6213.7 182.914 6215.01 183.842 6217.63 183.842H6252.86C6261.25 183.842 6268.26 185.89 6273.89 189.986C6279.71 194.338 6282.62 199.97 6282.62 206.882C6282.62 213.73 6279.68 219.266 6273.79 223.49C6268.29 227.522 6261.31 229.538 6252.86 229.538H6189.5L6203.33 211.682H6252.86C6255.1 211.682 6257.12 211.298 6258.91 210.53C6261.22 209.57 6262.37 208.258 6262.37 206.594C6262.37 204.866 6261.22 203.554 6258.91 202.658C6257.18 202.018 6255.17 201.698 6252.86 201.698H6217.63C6209.82 201.698 6203.3 199.906 6198.05 196.322C6192.42 192.482 6189.6 187.394 6189.6 181.058C6189.6 174.658 6192.42 169.538 6198.05 165.698C6203.3 162.114 6209.82 160.322 6217.63 160.322H6280.42ZM6351.83 220.802C6351.83 223.426 6350.81 225.57 6348.76 227.234C6346.71 228.898 6344.09 229.73 6340.89 229.73C6337.69 229.73 6335.06 228.898 6333.01 227.234C6330.97 225.57 6329.94 223.426 6329.94 220.802C6329.94 218.114 6330.97 215.938 6333.01 214.274C6335.06 212.61 6337.69 211.778 6340.89 211.778C6344.09 211.778 6346.71 212.61 6348.76 214.274C6350.81 215.938 6351.83 218.114 6351.83 220.802ZM6486.91 211.682L6473.08 229.538H6438.33C6426.3 229.538 6416.31 226.21 6408.38 219.554C6400.51 212.834 6396.57 204.418 6396.57 194.306C6396.57 184.194 6400.47 176.002 6408.28 169.73C6416.09 163.458 6426.11 160.322 6438.33 160.322H6486.91L6473.08 178.274H6438.33C6432.44 178.274 6427.58 179.874 6423.74 183.074C6419.9 186.21 6417.98 190.242 6417.98 195.17C6417.98 200.034 6419.9 204.002 6423.74 207.074C6427.58 210.146 6432.44 211.682 6438.33 211.682H6486.91ZM6581.63 160.322L6567.81 178.274H6518.85C6516.23 178.274 6514.91 179.202 6514.91 181.058C6514.91 182.914 6516.23 183.842 6518.85 183.842H6554.08C6562.47 183.842 6569.47 185.89 6575.11 189.986C6580.93 194.338 6583.84 199.97 6583.84 206.882C6583.84 213.73 6580.9 219.266 6575.01 223.49C6569.51 227.522 6562.53 229.538 6554.08 229.538H6490.72L6504.55 211.682H6554.08C6556.32 211.682 6558.34 211.298 6560.13 210.53C6562.43 209.57 6563.59 208.258 6563.59 206.594C6563.59 204.866 6562.43 203.554 6560.13 202.658C6558.4 202.018 6556.39 201.698 6554.08 201.698H6518.85C6511.04 201.698 6504.51 199.906 6499.27 196.322C6493.63 192.482 6490.82 187.394 6490.82 181.058C6490.82 174.658 6493.63 169.538 6499.27 165.698C6504.51 162.114 6511.04 160.322 6518.85 160.322H6581.63ZM6662.74 211.682L6648.91 229.538H6587.57V160.322H6662.74L6648.91 178.274H6609.07V185.57H6659.38L6645.55 203.426H6609.07V211.682H6662.74ZM6754.4 194.306C6754.4 204.418 6750.43 212.834 6742.49 219.554C6734.62 226.21 6724.67 229.538 6712.64 229.538H6666.27V186.338H6687.77V211.682H6712.64C6718.59 211.682 6723.49 210.178 6727.33 207.17C6731.17 204.098 6733.09 200.098 6733.09 195.17C6733.09 190.242 6731.13 186.21 6727.23 183.074C6723.39 179.874 6718.53 178.274 6712.64 178.274H6666.27L6679.9 160.322H6712.64C6724.86 160.322 6734.88 163.458 6742.69 169.73C6750.49 176.002 6754.4 184.194 6754.4 194.306ZM6824.42 220.802C6824.42 223.426 6823.4 225.57 6821.35 227.234C6819.3 228.898 6816.68 229.73 6813.48 229.73C6810.28 229.73 6807.66 228.898 6805.61 227.234C6803.56 225.57 6802.54 223.426 6802.54 220.802C6802.54 218.114 6803.56 215.938 6805.61 214.274C6807.66 212.61 6810.28 211.778 6813.48 211.778C6816.68 211.778 6819.3 212.61 6821.35 214.274C6823.4 215.938 6824.42 218.114 6824.42 220.802ZM6960.84 160.322L6947.02 178.274H6912.27C6906.38 178.274 6901.48 179.874 6897.58 183.074C6893.74 186.21 6891.82 190.242 6891.82 195.17C6891.82 200.098 6893.74 204.098 6897.58 207.17C6901.42 210.178 6906.32 211.682 6912.27 211.682H6937.23V205.25H6910.35L6896.24 188.162H6958.73V229.538H6912.27C6900.24 229.538 6890.25 226.21 6882.32 219.554C6874.44 212.834 6870.51 204.418 6870.51 194.306C6870.51 184.194 6874.41 176.002 6882.22 169.73C6890.03 163.458 6900.04 160.322 6912.27 160.322H6960.84ZM7067.67 229.538H7036.47L7015.54 212.162H6985.97V229.538H6964.47V194.21H7024.18C7027.83 194.21 7030.84 193.666 7033.21 192.578C7036.21 191.17 7037.72 189.09 7037.72 186.338C7037.72 180.962 7033.21 178.274 7024.18 178.274H6964.47L6978.49 160.322H7022.17C7032.98 160.322 7041.75 162.37 7048.47 166.466C7056.02 171.138 7059.8 177.794 7059.8 186.434C7059.8 191.298 7058.26 195.714 7055.19 199.682C7052.18 203.586 7047.99 206.594 7042.61 208.706L7067.67 229.538ZM7103.47 229.538L7116.43 211.586H7145.33L7127.37 186.722L7096.17 229.538H7069.58L7113.93 168.002C7115.34 165.954 7117.29 164.162 7119.79 162.626C7122.54 160.962 7125.2 160.13 7127.76 160.13C7130.38 160.13 7133.04 160.962 7135.73 162.626C7138.09 164.098 7140.01 165.89 7141.49 168.002L7184.78 229.538H7103.47ZM7262.02 160.322L7215.36 222.818C7211.52 228.002 7207.62 230.594 7203.65 230.594C7199.68 230.594 7195.78 227.97 7191.94 222.722L7146.43 160.322H7173.12L7204.03 203.138L7235.14 160.322H7262.02ZM7289.43 229.538H7268.02V160.322H7289.43V229.538ZM7378.31 160.322L7364.39 178.274H7343.65V229.538H7322.15V178.274H7293.64L7307.46 160.322H7378.31ZM7383.78 229.538L7396.74 211.586H7425.64L7407.69 186.722L7376.49 229.538H7349.89L7394.25 168.002C7395.65 165.954 7397.61 164.162 7400.1 162.626C7402.85 160.962 7405.51 160.13 7408.07 160.13C7410.69 160.13 7413.35 160.962 7416.04 162.626C7418.41 164.098 7420.33 165.89 7421.8 168.002L7465.09 229.538H7383.78ZM7557.67 160.322L7543.84 178.274H7494.88C7492.26 178.274 7490.95 179.202 7490.95 181.058C7490.95 182.914 7492.26 183.842 7494.88 183.842H7530.11C7538.5 183.842 7545.51 185.89 7551.14 189.986C7556.96 194.338 7559.87 199.97 7559.87 206.882C7559.87 213.73 7556.93 219.266 7551.04 223.49C7545.54 227.522 7538.56 229.538 7530.11 229.538H7466.75L7480.58 211.682H7530.11C7532.35 211.682 7534.37 211.298 7536.16 210.53C7538.47 209.57 7539.62 208.258 7539.62 206.594C7539.62 204.866 7538.47 203.554 7536.16 202.658C7534.43 202.018 7532.42 201.698 7530.11 201.698H7494.88C7487.07 201.698 7480.55 199.906 7475.3 196.322C7469.67 192.482 7466.85 187.394 7466.85 181.058C7466.85 174.658 7469.67 169.538 7475.3 165.698C7480.55 162.114 7487.07 160.322 7494.88 160.322H7557.67Z" fill="white"/>
</svg>
