<svg width="53" height="42" viewBox="0 0 53 42" fill="none" xmlns="http://www.w3.org/2000/svg">
<path d="M0.5 5.25C0.5 3.85761 1.04786 2.52226 2.02304 1.53769C2.99823 0.553123 4.32087 0 5.7 0H47.3C48.6791 0 50.0018 0.553123 50.977 1.53769C51.9521 2.52226 52.5 3.85761 52.5 5.25V36.75C52.5 38.1424 51.9521 39.4777 50.977 40.4623C50.0018 41.4469 48.6791 42 47.3 42H5.7C4.32087 42 2.99823 41.4469 2.02304 40.4623C1.04786 39.4777 0.5 38.1424 0.5 36.75V5.25ZM9.6494 5.25L26.5 20.1364L43.3506 5.25H9.6494ZM47.3 8.73862L28.2134 25.6016C27.7393 26.021 27.1304 26.2523 26.5 26.2523C25.8696 26.2523 25.2607 26.021 24.7866 25.6016L5.7 8.73862V36.75H47.3V8.73862Z" fill="#BA5DD1"/>
</svg>
