<svg width="53" height="53" viewBox="0 0 53 53" fill="none" xmlns="http://www.w3.org/2000/svg">
<path d="M26.5 0.5C19.4443 0.5 18.557 0.5325 15.7847 0.656C13.0125 0.786 11.1243 1.2215 9.47 1.865C7.73399 2.51606 6.16196 3.54004 4.86475 4.86475C3.54004 6.16196 2.51606 7.73399 1.865 9.47C1.2215 11.121 0.78275 13.0125 0.656 15.775C0.5325 18.5537 0.5 19.4378 0.5 26.5033C0.5 33.5623 0.5325 34.4463 0.656 37.2185C0.786 39.9875 1.2215 41.8757 1.865 43.53C2.53125 45.2395 3.4185 46.689 4.86475 48.1353C6.30775 49.5815 7.75725 50.472 9.46675 51.135C11.1243 51.7785 13.0093 52.2172 15.7783 52.344C18.5538 52.4675 19.4377 52.5 26.5 52.5C33.5623 52.5 34.443 52.4675 37.2185 52.344C39.9843 52.214 41.879 51.7785 43.5332 51.135C45.2681 50.4835 46.839 49.4596 48.1353 48.1353C49.5815 46.689 50.4688 45.2395 51.135 43.53C51.7752 41.8757 52.214 39.9875 52.344 37.2185C52.4675 34.4463 52.5 33.5623 52.5 26.5C52.5 19.4377 52.4675 18.5538 52.344 15.7783C52.214 13.0125 51.7752 11.121 51.135 9.47C50.4839 7.73399 49.46 6.16196 48.1353 4.86475C46.838 3.54004 45.266 2.51606 43.53 1.865C41.8725 1.2215 39.981 0.78275 37.2152 0.656C34.4398 0.5325 33.559 0.5 26.4935 0.5H26.5ZM24.1698 5.1865H26.5033C33.4453 5.1865 34.2675 5.20925 37.0072 5.336C39.5422 5.44975 40.9202 5.8755 41.8368 6.22975C43.049 6.701 43.9167 7.2665 44.8268 8.1765C45.7368 9.0865 46.299 9.951 46.7703 11.1665C47.1278 12.0798 47.5503 13.4578 47.664 15.9928C47.7907 18.7325 47.8167 19.5548 47.8167 26.4935C47.8167 33.4323 47.7907 34.2577 47.664 36.9975C47.5503 39.5325 47.1245 40.9072 46.7703 41.8237C46.3505 42.9512 45.6855 43.9713 44.8235 44.8105C43.9135 45.7205 43.049 46.2828 41.8335 46.754C40.9235 47.1115 39.5455 47.534 37.0072 47.651C34.2675 47.7745 33.4453 47.8037 26.5033 47.8037C19.5613 47.8037 18.7358 47.7745 15.996 47.651C13.461 47.534 12.0863 47.1115 11.1698 46.754C10.0415 46.3356 9.02019 45.6718 8.17975 44.8105C7.31614 43.9707 6.65007 42.9494 6.22975 41.8205C5.8755 40.9072 5.44975 39.5293 5.336 36.9943C5.2125 34.2545 5.1865 33.4323 5.1865 26.487C5.1865 19.5417 5.2125 18.726 5.336 15.9862C5.453 13.4513 5.8755 12.0732 6.233 11.1567C6.70425 9.9445 7.26975 9.07675 8.17975 8.16675C9.08975 7.25675 9.95425 6.6945 11.1698 6.22325C12.0863 5.86575 13.461 5.44325 15.996 5.32625C18.3945 5.21575 19.324 5.18325 24.1698 5.18V5.1865ZM40.3807 9.5025C39.971 9.5025 39.5653 9.5832 39.1868 9.74C38.8082 9.89679 38.4643 10.1266 38.1746 10.4163C37.8849 10.706 37.655 11.05 37.4982 11.4285C37.3414 11.8071 37.2607 12.2128 37.2607 12.6225C37.2607 13.0322 37.3414 13.4379 37.4982 13.8165C37.655 14.195 37.8849 14.539 38.1746 14.8287C38.4643 15.1184 38.8082 15.3482 39.1868 15.505C39.5653 15.6618 39.971 15.7425 40.3807 15.7425C41.2082 15.7425 42.0018 15.4138 42.5869 14.8287C43.172 14.2436 43.5008 13.45 43.5008 12.6225C43.5008 11.795 43.172 11.0014 42.5869 10.4163C42.0018 9.83121 41.2082 9.5025 40.3807 9.5025ZM26.5033 13.149C24.7322 13.1214 22.9734 13.4463 21.3292 14.105C19.685 14.7636 18.1882 15.7427 16.926 16.9854C15.6638 18.228 14.6614 19.7093 13.9772 21.3431C13.293 22.9768 12.9407 24.7304 12.9407 26.5016C12.9407 28.2729 13.293 30.0264 13.9772 31.6602C14.6614 33.2939 15.6638 34.7752 16.926 36.0179C18.1882 37.2605 19.685 38.2397 21.3292 38.8983C22.9734 39.5569 24.7322 39.8819 26.5033 39.8543C30.0085 39.7996 33.3517 38.3687 35.8112 35.8706C38.2707 33.3724 39.6492 30.0073 39.6492 26.5016C39.6492 22.9959 38.2707 19.6308 35.8112 17.1327C33.3517 14.6345 30.0085 13.2037 26.5033 13.149ZM26.5033 17.8323C27.6415 17.8323 28.7686 18.0564 29.8203 18.492C30.8719 18.9276 31.8274 19.5661 32.6323 20.371C33.4372 21.1758 34.0756 22.1314 34.5112 23.183C34.9468 24.2346 35.171 25.3617 35.171 26.5C35.171 27.6383 34.9468 28.7654 34.5112 29.817C34.0756 30.8686 33.4372 31.8242 32.6323 32.629C31.8274 33.4339 30.8719 34.0724 29.8203 34.508C28.7686 34.9436 27.6415 35.1678 26.5033 35.1677C24.2044 35.1677 21.9997 34.2545 20.3742 32.629C18.7487 31.0035 17.8355 28.7988 17.8355 26.5C17.8355 24.2012 18.7487 21.9965 20.3742 20.371C21.9997 18.7455 24.2044 17.8323 26.5033 17.8323Z" fill="#BA5DD1"/>
</svg>
