<svg width="53" height="52" viewBox="0 0 53 52" fill="none" xmlns="http://www.w3.org/2000/svg">
<path d="M44.9221 7.56612C42.5261 5.1588 39.6725 3.25004 36.5277 1.95108C33.3828 0.652111 30.0096 -0.0110842 26.6045 0.000140127C12.3372 0.000140127 0.709046 11.5701 0.709046 25.7661C0.709046 30.3161 1.91106 34.736 4.15829 38.636L0.5 52L14.2186 48.412C18.0075 50.466 22.2668 51.558 26.6045 51.558C40.8719 51.558 52.5 39.988 52.5 25.7921C52.5 18.9021 49.8085 12.4281 44.9221 7.56612ZM26.6045 47.19C22.7372 47.19 18.9482 46.15 15.6296 44.2L14.8457 43.732L6.69296 45.864L8.86181 37.96L8.3392 37.154C6.19007 33.7404 5.04915 29.7942 5.04673 25.7661C5.04673 13.9621 14.7151 4.34213 26.5784 4.34213C32.3271 4.34213 37.7362 6.57812 41.7864 10.6341C43.7923 12.6202 45.3818 14.9827 46.4628 17.5847C47.5439 20.1868 48.0949 22.9765 48.0839 25.7921C48.1362 37.596 38.4678 47.19 26.6045 47.19ZM38.4156 31.1741C37.7623 30.8621 34.5744 29.3021 33.9995 29.0681C33.3985 28.8601 32.9804 28.7561 32.5362 29.3801C32.092 30.0301 30.8638 31.4861 30.498 31.9021C30.1322 32.3441 29.7402 32.3961 29.0869 32.0581C28.4337 31.7461 26.3432 31.0441 23.8869 28.8601C21.9533 27.1441 20.6729 25.0381 20.2809 24.3881C19.9151 23.7381 20.2286 23.4001 20.5683 23.0621C20.8558 22.7761 21.2216 22.3081 21.5352 21.9441C21.8487 21.5801 21.9794 21.2941 22.1884 20.8781C22.3975 20.4361 22.293 20.0721 22.1362 19.7601C21.9794 19.4481 20.6729 16.2761 20.1502 14.9761C19.6276 13.7281 19.0789 13.8841 18.6869 13.8581H17.4327C16.9884 13.8581 16.309 14.0141 15.708 14.6641C15.1332 15.3141 13.4608 16.8741 13.4608 20.0461C13.4608 23.2181 15.7864 26.2861 16.1 26.7021C16.4136 27.1441 20.6729 33.6441 27.1533 36.426C28.695 37.102 29.897 37.492 30.8377 37.778C32.3794 38.272 33.7905 38.194 34.9141 38.038C36.1683 37.856 38.7553 36.478 39.2779 34.97C39.8266 33.4621 39.8266 32.1881 39.6437 31.9021C39.4608 31.6161 39.0688 31.4861 38.4156 31.1741Z" fill="#BA5DD1"/>
</svg>
